<?xml version="1.0" encoding="UTF-8" standalone="no"?>
<!-- Created with Inkscape (http://www.inkscape.org/) -->
<svg
   xmlns:dc="http://purl.org/dc/elements/1.1/"
   xmlns:cc="http://web.resource.org/cc/"
   xmlns:rdf="http://www.w3.org/1999/02/22-rdf-syntax-ns#"
   xmlns:svg="http://www.w3.org/2000/svg"
   xmlns="http://www.w3.org/2000/svg"
   xmlns:sodipodi="http://sodipodi.sourceforge.net/DTD/sodipodi-0.dtd"
   xmlns:inkscape="http://www.inkscape.org/namespaces/inkscape"
   width="744.09448819"
   height="1052.3622047"
   id="svg2"
   sodipodi:version="0.32"
   inkscape:version="0.44"
   sodipodi:docbase="/home/maks/Desktop"
   sodipodi:docname="Transport.svg">
  <defs
     id="defs4" />
  <sodipodi:namedview
     id="base"
     pagecolor="#ffffff"
     bordercolor="#666666"
     borderopacity="1.0"
     gridtolerance="10000"
     guidetolerance="10"
     objecttolerance="10"
     inkscape:pageopacity="0.0"
     inkscape:pageshadow="2"
     inkscape:zoom="0.12374369"
     inkscape:cx="1224.9828"
     inkscape:cy="2135.4544"
     inkscape:document-units="px"
     inkscape:current-layer="layer1"
     showgrid="true"
     gridspacingx="35.43px"
     gridspacingy="35.43307px"
     grid_units="px"
     inkscape:object-bbox="true"
     inkscape:object-points="false"
     inkscape:grid-points="true"
     inkscape:window-width="1272"
     inkscape:window-height="884"
     inkscape:window-x="0"
     inkscape:window-y="0" />
  <metadata
     id="metadata7">
    <rdf:RDF>
      <cc:Work
         rdf:about="">
        <dc:format>image/svg+xml</dc:format>
        <dc:type
           rdf:resource="http://purl.org/dc/dcmitype/StillImage" />
      </cc:Work>
    </rdf:RDF>
  </metadata>
  <g
     inkscape:label="Layer 1"
     inkscape:groupmode="layer"
     id="layer1">
    <g
       id="g2972"
       transform="translate(-531.496,248.0315)">
      <path
         sodipodi:nodetypes="cccccccccc"
         id="path2813"
         d="M -992.12599,432.28344 L -177.16535,432.28344 L -177.16535,219.68502 L -283.46456,219.68502 L -425.19684,42.519662 L -850.39369,42.519662 L -992.12598,219.68502 L -1240.1575,219.68502 L -1240.1575,432.28344 L -992.12599,432.28344 z "
         style="fill:black;fill-opacity:1;fill-rule:evenodd;stroke:none;stroke-width:1px;stroke-linecap:butt;stroke-linejoin:miter;stroke-opacity:1" />
      <g
         transform="translate(-1169.291,-194.8819)"
         id="g2823">
        <path
           sodipodi:type="arc"
           style="fill:white;fill-opacity:1"
           id="path1912"
           sodipodi:cx="283.46457"
           sodipodi:cy="609.44879"
           sodipodi:rx="141.73228"
           sodipodi:ry="124.01575"
           d="M 425.19685 609.44879 A 141.73228 124.01575 0 1 1  141.73228,609.44879 A 141.73228 124.01575 0 1 1  425.19685 609.44879 z"
           transform="matrix(0.875,0,0,1,-88.58268,6.247693e-6)" />
        <path
           sodipodi:type="arc"
           style="fill:black"
           id="path1910"
           sodipodi:cx="265.74802"
           sodipodi:cy="255.11809"
           sodipodi:rx="88.58268"
           sodipodi:ry="88.58268"
           d="M 354.3307 255.11809 A 88.58268 88.58268 0 1 1  177.16534,255.11809 A 88.58268 88.58268 0 1 1  354.3307 255.11809 z"
           transform="translate(-106.2992,354.3307)" />
      </g>
      <g
         transform="translate(-921.2598,-159.4488)"
         id="g2827">
        <path
           sodipodi:type="arc"
           style="fill:white;fill-opacity:1"
           id="path2801"
           sodipodi:cx="283.46457"
           sodipodi:cy="609.44879"
           sodipodi:rx="141.73228"
           sodipodi:ry="124.01575"
           d="M 425.19685 609.44879 A 141.73228 124.01575 0 1 1  141.73228,609.44879 A 141.73228 124.01575 0 1 1  425.19685 609.44879 z"
           transform="matrix(0.875,0,0,1,265.748,6.247693e-6)" />
        <path
           sodipodi:type="arc"
           style="fill:black"
           id="path2803"
           sodipodi:cx="265.74802"
           sodipodi:cy="255.11809"
           sodipodi:rx="88.58268"
           sodipodi:ry="88.58268"
           d="M 354.3307 255.11809 A 88.58268 88.58268 0 1 1  177.16534,255.11809 A 88.58268 88.58268 0 1 1  354.3307 255.11809 z"
           transform="translate(248.0315,354.3307)" />
      </g>
      <path
         sodipodi:nodetypes="ccccc"
         id="path2815"
         d="M -814.96062,77.952732 L -673.22834,77.952732 L -673.22834,219.68502 L -921.25984,219.68502 L -814.96062,77.952732 z "
         style="fill:white;fill-opacity:1;fill-rule:evenodd;stroke:none;stroke-width:1px;stroke-linecap:butt;stroke-linejoin:miter;stroke-opacity:1" />
      <path
         sodipodi:nodetypes="ccccc"
         id="path2817"
         d="M -602.3622,77.952732 L -602.3622,219.68502 L -354.3307,219.68502 L -460.62992,77.952732 L -602.3622,77.952732 z "
         style="fill:white;fill-opacity:1;fill-rule:evenodd;stroke:none;stroke-width:1px;stroke-linecap:butt;stroke-linejoin:miter;stroke-opacity:1" />
    </g>
    <path
       style="fill:black;fill-opacity:1;fill-rule:evenodd;stroke:none;stroke-width:1px;stroke-linecap:butt;stroke-linejoin:miter;stroke-opacity:1"
       d="M -1628.3049,-734.87859 L -1577.8418,-734.52539 L -1578.1949,-684.76859 L -1614.5221,-598.02329 L -1779.5293,-434.17159 L -1778.2107,-33.763289 L -1828.2737,16.299611 L -1979.7807,-233.92029 L -2180.032,-33.668989 L -2180.0789,166.53541 L -2280.1343,-33.645489 L -2330.197,16.417311 L -2280.1343,-33.645489 L -2480.315,-133.70059 L -2280.1108,-133.74759 L -2079.8593,-333.99889 L -2330.0794,-484.09339 L -2278.604,-534.15659 L -1879.6079,-534.25019 L -1703.1521,-709.47059 L -1628.3049,-734.87859 z "
       id="path2855"
       sodipodi:nodetypes="ccccccccccccccccccccc" />
    <g
       id="g2917"
       transform="translate(-1062.992,-141.7324)">
      <path
         transform="matrix(1.333333,0,0,1.285714,543.307,362.4299)"
         d="M 708.66145 -524.40948 A 53.149605 124.01575 0 1 1  602.36224,-524.40948 A 53.149605 124.01575 0 1 1  708.66145 -524.40948 z"
         sodipodi:ry="124.01575"
         sodipodi:rx="53.149605"
         sodipodi:cy="-524.40948"
         sodipodi:cx="655.51184"
         id="path2869"
         style="fill:black;fill-opacity:1;stroke:none;stroke-opacity:1"
         sodipodi:type="arc" />
      <path
         sodipodi:nodetypes="ccccc"
         id="path2873"
         d="M 1417.3228,-471.25982 L 885.82677,-471.25982 L 885.82677,-152.36219 L 1417.3228,-152.36219 L 1417.3228,-471.25982 z "
         style="fill:black;fill-opacity:1;fill-rule:evenodd;stroke:none;stroke-width:1px;stroke-linecap:butt;stroke-linejoin:miter;stroke-opacity:1" />
      <path
         sodipodi:nodetypes="cccccccccccc"
         id="path2879"
         d="M 885.82677,-400.39368 L 885.82677,-683.85826 L 921.25984,-683.85826 L 850.3937,-719.29136 L 496.06299,-719.29136 L 425.19685,-683.85826 L 460.62992,-683.85826 L 460.6298,-471.25975 L 354.392,-400.39357 L 354.392,-46.062867 L 460.682,-46.062867 L 885.82677,-152.36219"
         style="fill:black;fill-opacity:1;fill-rule:evenodd;stroke:none;stroke-width:1px;stroke-linecap:butt;stroke-linejoin:miter;stroke-opacity:1" />
      <g
         transform="translate(708.7168,-389.7636)"
         id="g2883">
        <path
           sodipodi:type="arc"
           style="fill:white;fill-opacity:1;stroke:none;stroke-opacity:1"
           id="path2881"
           sodipodi:cx="478.34647"
           sodipodi:cy="77.952736"
           sodipodi:rx="159.44882"
           sodipodi:ry="159.44882"
           d="M 637.79529 77.952736 A 159.44882 159.44882 0 1 1  318.89764,77.952736 A 159.44882 159.44882 0 1 1  637.79529 77.952736 z"
           transform="matrix(1.111111,0,0,1.111111,-1.385535e-5,257.0866)" />
        <path
           transform="matrix(1.600001,0,0,1,389.7638,744.0945)"
           sodipodi:type="arc"
           style="fill:black;fill-opacity:1;stroke:none;stroke-opacity:1"
           id="path2863"
           sodipodi:cx="88.58268"
           sodipodi:cy="-400.39374"
           sodipodi:rx="88.58268"
           sodipodi:ry="141.73228"
           d="M 177.16536 -400.39374 A 88.58268 141.73228 0 1 1  0,-400.39374 A 88.58268 141.73228 0 1 1  177.16536 -400.39374 z" />
      </g>
      <g
         transform="translate(389.8192,-389.7636)"
         id="g2887">
        <path
           sodipodi:type="arc"
           style="fill:white;fill-opacity:1;stroke:none;stroke-opacity:1"
           id="path2889"
           sodipodi:cx="478.34647"
           sodipodi:cy="77.952736"
           sodipodi:rx="159.44882"
           sodipodi:ry="159.44882"
           d="M 637.79529 77.952736 A 159.44882 159.44882 0 1 1  318.89764,77.952736 A 159.44882 159.44882 0 1 1  637.79529 77.952736 z"
           transform="matrix(1.111111,0,0,1.111111,-1.385535e-5,257.0866)" />
        <path
           transform="matrix(1.600001,0,0,1,389.7638,744.0945)"
           sodipodi:type="arc"
           style="fill:black;fill-opacity:1;stroke:none;stroke-opacity:1"
           id="path2891"
           sodipodi:cx="88.58268"
           sodipodi:cy="-400.39374"
           sodipodi:rx="88.58268"
           sodipodi:ry="141.73228"
           d="M 177.16536 -400.39374 A 88.58268 141.73228 0 1 1  0,-400.39374 A 88.58268 141.73228 0 1 1  177.16536 -400.39374 z" />
      </g>
      <g
         transform="translate(70.92133,-389.7636)"
         id="g2893">
        <path
           sodipodi:type="arc"
           style="fill:white;fill-opacity:1;stroke:none;stroke-opacity:1"
           id="path2895"
           sodipodi:cx="478.34647"
           sodipodi:cy="77.952736"
           sodipodi:rx="159.44882"
           sodipodi:ry="159.44882"
           d="M 637.79529 77.952736 A 159.44882 159.44882 0 1 1  318.89764,77.952736 A 159.44882 159.44882 0 1 1  637.79529 77.952736 z"
           transform="matrix(1.111111,0,0,1.111111,-1.385535e-5,257.0866)" />
        <path
           transform="matrix(1.600001,0,0,1,389.7638,744.0945)"
           sodipodi:type="arc"
           style="fill:black;fill-opacity:1;stroke:none;stroke-opacity:1"
           id="path2897"
           sodipodi:cx="88.58268"
           sodipodi:cy="-400.39374"
           sodipodi:rx="88.58268"
           sodipodi:ry="141.73228"
           d="M 177.16536 -400.39374 A 88.58268 141.73228 0 1 1  0,-400.39374 A 88.58268 141.73228 0 1 1  177.16536 -400.39374 z" />
      </g>
      <g
         transform="translate(1133.858,177.1653)"
         id="g2905">
        <g
           transform="matrix(1,0,0,0.555554,814.9605,-130.7099)"
           id="g2909">
          <path
             transform="matrix(1.599998,0,0,1.250001,850.3905,312.6972)"
             d="M -1240.1574 -1144.4882 A 88.58268 106.29921 0 1 1  -1417.3228,-1144.4882 A 88.58268 106.29921 0 1 1  -1240.1574 -1144.4882 z"
             sodipodi:ry="106.29921"
             sodipodi:rx="88.58268"
             sodipodi:cy="-1144.4882"
             sodipodi:cx="-1328.7401"
             id="path2901"
             style="fill:white;fill-opacity:1;stroke:none;stroke-opacity:1"
             sodipodi:type="arc" />
          <rect
             y="-1117.9135"
             x="-1417.3229"
             height="186.02368"
             width="283.46457"
             id="rect2903"
             style="fill:white;fill-opacity:1;stroke:none;stroke-opacity:1" />
        </g>
        <path
           sodipodi:nodetypes="ccccccc"
           id="path2915"
           d="M 0.00018739166,-648.42516 L 177.16554,-648.42516 L 177.16554,-861.02361 L 212.59861,-896.45671 L -35.432883,-896.45671 L 0.00018739166,-861.02361 L 0.00018739166,-648.42516 z "
           style="fill:black;fill-opacity:1;fill-rule:evenodd;stroke:none;stroke-width:1px;stroke-linecap:butt;stroke-linejoin:miter;stroke-opacity:1" />
      </g>
    </g>
    <rect
       style="fill:none;fill-opacity:1;stroke:black;stroke-opacity:1"
       id="rect2938"
       width="0"
       height="0"
       x="6023.6221"
       y="-4794.0947" />
    <g
       id="Car"
       inkscape:label="">
      <path
         d="M -1594.4882 -2490.9448 A 708.66144 708.66144 0 1 1  -3011.8111,-2490.9448 A 708.66144 708.66144 0 1 1  -1594.4882 -2490.9448 z"
         sodipodi:ry="708.66144"
         sodipodi:rx="708.66144"
         sodipodi:cy="-2490.9448"
         sodipodi:cx="-2303.1497"
         id="path2944"
         style="fill:none;fill-opacity:1;stroke:black;stroke-width:100;stroke-miterlimit:4;stroke-dasharray:none;stroke-opacity:1"
         sodipodi:type="arc" />
      <g
         transform="translate(-1594.243,-2746.063)"
         id="g3039">
        <path
           style="fill:black;fill-opacity:1;fill-rule:evenodd;stroke:none;stroke-width:1px;stroke-linecap:butt;stroke-linejoin:miter;stroke-opacity:1"
           d="M -992.12599,432.28344 L -177.16535,432.28344 L -177.16535,219.68502 L -283.46456,219.68502 L -425.19684,42.519662 L -850.39369,42.519662 L -992.12598,219.68502 L -1240.1575,219.68502 L -1240.1575,432.28344 L -992.12599,432.28344 z "
           id="path3041"
           sodipodi:nodetypes="cccccccccc" />
        <g
           id="g3043"
           transform="translate(-1169.291,-194.8819)">
          <path
             transform="matrix(0.875,0,0,1,-88.58268,6.247693e-6)"
             d="M 425.19685 609.44879 A 141.73228 124.01575 0 1 1  141.73228,609.44879 A 141.73228 124.01575 0 1 1  425.19685 609.44879 z"
             sodipodi:ry="124.01575"
             sodipodi:rx="141.73228"
             sodipodi:cy="609.44879"
             sodipodi:cx="283.46457"
             id="path3045"
             style="fill:white;fill-opacity:1"
             sodipodi:type="arc" />
          <path
             transform="translate(-106.2992,354.3307)"
             d="M 354.3307 255.11809 A 88.58268 88.58268 0 1 1  177.16534,255.11809 A 88.58268 88.58268 0 1 1  354.3307 255.11809 z"
             sodipodi:ry="88.58268"
             sodipodi:rx="88.58268"
             sodipodi:cy="255.11809"
             sodipodi:cx="265.74802"
             id="path3047"
             style="fill:black"
             sodipodi:type="arc" />
        </g>
        <g
           id="g3049"
           transform="translate(-921.2598,-159.4488)">
          <path
             transform="matrix(0.875,0,0,1,265.748,6.247693e-6)"
             d="M 425.19685 609.44879 A 141.73228 124.01575 0 1 1  141.73228,609.44879 A 141.73228 124.01575 0 1 1  425.19685 609.44879 z"
             sodipodi:ry="124.01575"
             sodipodi:rx="141.73228"
             sodipodi:cy="609.44879"
             sodipodi:cx="283.46457"
             id="path3051"
             style="fill:white;fill-opacity:1"
             sodipodi:type="arc" />
          <path
             transform="translate(248.0315,354.3307)"
             d="M 354.3307 255.11809 A 88.58268 88.58268 0 1 1  177.16534,255.11809 A 88.58268 88.58268 0 1 1  354.3307 255.11809 z"
             sodipodi:ry="88.58268"
             sodipodi:rx="88.58268"
             sodipodi:cy="255.11809"
             sodipodi:cx="265.74802"
             id="path3053"
             style="fill:black"
             sodipodi:type="arc" />
        </g>
        <path
           style="fill:white;fill-opacity:1;fill-rule:evenodd;stroke:none;stroke-width:1px;stroke-linecap:butt;stroke-linejoin:miter;stroke-opacity:1"
           d="M -814.96062,77.952732 L -673.22834,77.952732 L -673.22834,219.68502 L -921.25984,219.68502 L -814.96062,77.952732 z "
           id="path3055"
           sodipodi:nodetypes="ccccc" />
        <path
           style="fill:white;fill-opacity:1;fill-rule:evenodd;stroke:none;stroke-width:1px;stroke-linecap:butt;stroke-linejoin:miter;stroke-opacity:1"
           d="M -602.3622,77.952732 L -602.3622,219.68502 L -354.3307,219.68502 L -460.62992,77.952732 L -602.3622,77.952732 z "
           id="path3057"
           sodipodi:nodetypes="ccccc" />
      </g>
    </g>
    <g
       id="Plane"
       inkscape:label="">
      <rect
         y="-3376.7717"
         x="885.82678"
         height="1594.4882"
         width="1594.4882"
         id="rect2952"
         style="fill:none;fill-opacity:1;stroke:black;stroke-width:100;stroke-miterlimit:4;stroke-dasharray:none;stroke-opacity:1" />
      <path
         style="fill:black;fill-opacity:1;fill-rule:evenodd;stroke:none;stroke-width:1px;stroke-linecap:butt;stroke-linejoin:miter;stroke-opacity:1"
         d="M 2232.8044,-3199.6063 L 2302.0904,-3199.1204 L 2301.6056,-3130.6654 L 2251.7283,-3011.322 L 2025.1729,-2785.8962 L 2026.9834,-2235.0181 L 1958.2467,-2166.142 L 1771.5,-2526.3779 L 1475.2815,-2234.8883 L 1475.2172,-1959.4488 L 1337.8408,-2234.856 L 1269.1045,-2165.98 L 1337.8408,-2234.856 L 1062.9921,-2372.5109 L 1337.8731,-2372.5756 L 1612.819,-2648.0795 L 1269.2661,-2854.5783 L 1339.9419,-2923.4548 L 1887.7647,-2923.5836 L 2130.039,-3164.6503 L 2232.8044,-3199.6063 z "
         id="path3133"
         sodipodi:nodetypes="ccccccccccccccccccccc" />
    </g>
    <g
       id="g3220">
      <g
         id="Train"
         inkscape:label="">
        <path
           sodipodi:type="star"
           style="fill:none;fill-opacity:1;stroke:black;stroke-width:100;stroke-miterlimit:4;stroke-dasharray:none;stroke-opacity:1"
           id="path2950"
           sodipodi:sides="3"
           sodipodi:cx="-354.33071"
           sodipodi:cy="-2313.7795"
           sodipodi:r1="1038.5517"
           sodipodi:r2="519.27584"
           sodipodi:arg1="0.52359878"
           sodipodi:arg2="1.5707963"
           inkscape:flatsided="false"
           inkscape:rounded="0"
           inkscape:randomized="0"
           d="M 545.08148,-1794.5037 L -354.33071,-1794.5037 L -1253.7429,-1794.5037 L -804.03678,-2573.4174 L -354.33071,-3352.3313 L 95.375324,-2573.4175 L 545.08148,-1794.5037 z " />
        <g
           id="g3171"
           transform="matrix(0.843723,0,0,0.842105,-1113.899,-1956.092)">
          <path
             transform="matrix(1.333333,0,0,1.285714,543.307,362.4299)"
             d="M 708.66145 -524.40948 A 53.149605 124.01575 0 1 1  602.36224,-524.40948 A 53.149605 124.01575 0 1 1  708.66145 -524.40948 z"
             sodipodi:ry="124.01575"
             sodipodi:rx="53.149605"
             sodipodi:cy="-524.40948"
             sodipodi:cx="655.51184"
             id="path3173"
             style="fill:black;fill-opacity:1;stroke:none;stroke-opacity:1"
             sodipodi:type="arc" />
          <path
             sodipodi:nodetypes="ccccc"
             id="path3175"
             d="M 1417.3228,-471.25982 L 885.82677,-471.25982 L 885.82677,-152.36219 L 1417.3228,-152.36219 L 1417.3228,-471.25982 z "
             style="fill:black;fill-opacity:1;fill-rule:evenodd;stroke:none;stroke-width:1px;stroke-linecap:butt;stroke-linejoin:miter;stroke-opacity:1" />
          <path
             sodipodi:nodetypes="cccccccccccc"
             id="path3177"
             d="M 885.82677,-400.39368 L 885.82677,-683.85826 L 921.25984,-683.85826 L 850.3937,-719.29136 L 496.06299,-719.29136 L 425.19685,-683.85826 L 460.62992,-683.85826 L 460.6298,-471.25975 L 354.392,-400.39357 L 354.392,-46.062867 L 460.682,-46.062867 L 885.82677,-152.36219"
             style="fill:black;fill-opacity:1;fill-rule:evenodd;stroke:none;stroke-width:1px;stroke-linecap:butt;stroke-linejoin:miter;stroke-opacity:1" />
          <g
             transform="translate(708.7168,-389.7636)"
             id="g3179">
            <path
               sodipodi:type="arc"
               style="fill:white;fill-opacity:1;stroke:none;stroke-opacity:1"
               id="path3181"
               sodipodi:cx="478.34647"
               sodipodi:cy="77.952736"
               sodipodi:rx="159.44882"
               sodipodi:ry="159.44882"
               d="M 637.79529 77.952736 A 159.44882 159.44882 0 1 1  318.89764,77.952736 A 159.44882 159.44882 0 1 1  637.79529 77.952736 z"
               transform="matrix(1.111111,0,0,1.111111,-1.385535e-5,257.0866)" />
            <path
               transform="matrix(1.600001,0,0,1,389.7638,744.0945)"
               sodipodi:type="arc"
               style="fill:black;fill-opacity:1;stroke:none;stroke-opacity:1"
               id="path3183"
               sodipodi:cx="88.58268"
               sodipodi:cy="-400.39374"
               sodipodi:rx="88.58268"
               sodipodi:ry="141.73228"
               d="M 177.16536 -400.39374 A 88.58268 141.73228 0 1 1  0,-400.39374 A 88.58268 141.73228 0 1 1  177.16536 -400.39374 z" />
          </g>
          <g
             transform="translate(389.8192,-389.7636)"
             id="g3185">
            <path
               sodipodi:type="arc"
               style="fill:white;fill-opacity:1;stroke:none;stroke-opacity:1"
               id="path3187"
               sodipodi:cx="478.34647"
               sodipodi:cy="77.952736"
               sodipodi:rx="159.44882"
               sodipodi:ry="159.44882"
               d="M 637.79529 77.952736 A 159.44882 159.44882 0 1 1  318.89764,77.952736 A 159.44882 159.44882 0 1 1  637.79529 77.952736 z"
               transform="matrix(1.111111,0,0,1.111111,-1.385535e-5,257.0866)" />
            <path
               transform="matrix(1.600001,0,0,1,389.7638,744.0945)"
               sodipodi:type="arc"
               style="fill:black;fill-opacity:1;stroke:none;stroke-opacity:1"
               id="path3189"
               sodipodi:cx="88.58268"
               sodipodi:cy="-400.39374"
               sodipodi:rx="88.58268"
               sodipodi:ry="141.73228"
               d="M 177.16536 -400.39374 A 88.58268 141.73228 0 1 1  0,-400.39374 A 88.58268 141.73228 0 1 1  177.16536 -400.39374 z" />
          </g>
          <g
             transform="translate(70.92133,-389.7636)"
             id="g3191">
            <path
               sodipodi:type="arc"
               style="fill:white;fill-opacity:1;stroke:none;stroke-opacity:1"
               id="path3193"
               sodipodi:cx="478.34647"
               sodipodi:cy="77.952736"
               sodipodi:rx="159.44882"
               sodipodi:ry="159.44882"
               d="M 637.79529 77.952736 A 159.44882 159.44882 0 1 1  318.89764,77.952736 A 159.44882 159.44882 0 1 1  637.79529 77.952736 z"
               transform="matrix(1.111111,0,0,1.111111,-1.385535e-5,257.0866)" />
            <path
               transform="matrix(1.600001,0,0,1,389.7638,744.0945)"
               sodipodi:type="arc"
               style="fill:black;fill-opacity:1;stroke:none;stroke-opacity:1"
               id="path3195"
               sodipodi:cx="88.58268"
               sodipodi:cy="-400.39374"
               sodipodi:rx="88.58268"
               sodipodi:ry="141.73228"
               d="M 177.16536 -400.39374 A 88.58268 141.73228 0 1 1  0,-400.39374 A 88.58268 141.73228 0 1 1  177.16536 -400.39374 z" />
          </g>
          <g
             transform="translate(1133.858,177.1653)"
             id="g3197">
            <g
               transform="matrix(1,0,0,0.555554,814.9605,-130.7099)"
               id="g3199">
              <path
                 transform="matrix(1.599998,0,0,1.250001,850.3905,312.6972)"
                 d="M -1240.1574 -1144.4882 A 88.58268 106.29921 0 1 1  -1417.3228,-1144.4882 A 88.58268 106.29921 0 1 1  -1240.1574 -1144.4882 z"
                 sodipodi:ry="106.29921"
                 sodipodi:rx="88.58268"
                 sodipodi:cy="-1144.4882"
                 sodipodi:cx="-1328.7401"
                 id="path3201"
                 style="fill:white;fill-opacity:1;stroke:none;stroke-opacity:1"
                 sodipodi:type="arc" />
              <rect
                 y="-1117.9135"
                 x="-1417.3229"
                 height="186.02368"
                 width="283.46457"
                 id="rect3203"
                 style="fill:white;fill-opacity:1;stroke:none;stroke-opacity:1" />
            </g>
            <path
               sodipodi:nodetypes="ccccccc"
               id="path3205"
               d="M 0.00018739166,-648.42516 L 177.16554,-648.42516 L 177.16554,-861.02361 L 212.59861,-896.45671 L -35.432883,-896.45671 L 0.00018739166,-861.02361 L 0.00018739166,-648.42516 z "
               style="fill:black;fill-opacity:1;fill-rule:evenodd;stroke:none;stroke-width:1px;stroke-linecap:butt;stroke-linejoin:miter;stroke-opacity:1" />
          </g>
        </g>
      </g>
    </g>
  </g>
</svg>
